<?xml version="1.0" standalone="no"?><!DOCTYPE svg PUBLIC "-//W3C//DTD SVG 1.1//EN" "http://www.w3.org/Graphics/SVG/1.1/DTD/svg11.dtd"><svg class="icon" width="200px" height="199.61px" viewBox="0 0 1026 1024" version="1.1" xmlns="http://www.w3.org/2000/svg"><path d="M1005.190301 504.852314l-437.137399-443.90889-29.34313-30.095518c-6.771492-6.771492-15.800147-10.533431-24.828802-10.533431-9.781043 0-18.809699 3.76194-24.828802 10.533431L22.571639 504.099927C1.504776 525.166789-4.514328 556.767083 6.771492 584.605437c11.285819 27.085966 38.371785 45.143277 67.714915 45.143277h48.152829v373.936811h783.235856V630.501102h48.905217c19.562087 0 37.619398-7.52388 51.16238-21.066862 27.085966-29.34313 27.085966-75.238795-0.752388-104.581926z m-428.861131 416.822925H449.927994V687.682586h127.153564v233.992653z m246.783247-373.936811v373.936811H649.310801V659.844232c0-12.038207-4.514328-24.076414-12.790595-32.352682-8.276267-8.276267-20.314475-13.542983-32.352682-13.542983H422.842028c-12.038207 0-23.324026 5.266716-32.352682 13.542983-8.276267 8.276267-13.542983 20.314475-12.790595 32.352682v261.831007H203.144747V547.738428H94.048494l419.080088-424.346804 26.333578 27.085966 392.74651 398.013226-109.096253-0.752388z m0 0"  /></svg>