<?xml version="1.0" standalone="no"?><!DOCTYPE svg PUBLIC "-//W3C//DTD SVG 1.1//EN" "http://www.w3.org/Graphics/SVG/1.1/DTD/svg11.dtd"><svg t="1666855474682" class="icon" viewBox="0 0 1024 1024" version="1.1" xmlns="http://www.w3.org/2000/svg" p-id="1412" xmlns:xlink="http://www.w3.org/1999/xlink" width="200" height="200"><path d="M511.9 844.3c-41.5 0-81.7-8.1-119.6-24.1-36.5-15.4-69.7-37.7-97.7-65.8-63.9-63.8-96.5-152.4-89.1-242.4 7.5-90 54.2-172.1 127.7-224.5 10.7-6.3 24.5-3.3 31.7 6.7 7.2 10.1 5.6 24-3.7 32.2-32.9 23.7-60 54.6-78.9 90.5-19.6 37-29.8 78.3-29.6 120.2 0 69.2 27 134.3 75.9 183.3 48.5 48.8 114.5 76.2 183.3 76 69.2 0 134.4-27 183.4-76 48.8-48.5 76.1-114.5 75.9-183.3 0.1-41.9-10-83.2-29.6-120.2-19-35.8-46-66.8-78.9-90.4-10.8-7.7-13.2-22.7-5.5-33.5 7.7-10.8 22.7-13.2 33.5-5.5C764.2 339.8 810.9 422 818.4 512c7.4 90-25.2 178.7-89.1 242.4-57.6 57.7-135.9 90-217.4 89.9z m7.2-333.4c-6.4 0-12.5-2.5-17-7s-7-10.6-7-17V202.4c0.6-12.9 11.2-23 24.1-23 12.9 0 23.5 10.1 24.1 23v284.5c-0.1 13.3-10.8 24-24.2 24z m0 0" p-id="1413"></path></svg>