<?xml version="1.0" standalone="no"?><!DOCTYPE svg PUBLIC "-//W3C//DTD SVG 1.1//EN" "http://www.w3.org/Graphics/SVG/1.1/DTD/svg11.dtd"><svg t="1670220643572" class="icon" viewBox="0 0 1024 1024" version="1.1" xmlns="http://www.w3.org/2000/svg" p-id="1862" xmlns:xlink="http://www.w3.org/1999/xlink" width="200" height="200"><path d="M800 992a190.848 190.848 0 0 1-140.8-62.208 373.792 373.792 0 0 1-244.128 17.408 221.792 221.792 0 0 0 24.992-59.584 313.6 313.6 0 0 0 183.328-12.064A192 192 0 1 1 800 992z m0-320a128 128 0 1 0 128 128 128 128 0 0 0-128-128z m29.952-127.808a319.552 319.552 0 0 0-142.72-235.776 203.04 203.04 0 0 0 11.008-39.872A190.24 190.24 0 1 1 704 224c0 6.4-1.28 12.448-1.888 18.656a383.296 383.296 0 0 1 192.384 311.296A221.568 221.568 0 0 0 832 544c-0.704 0-1.344 0.192-2.048 0.192zM512 96a128 128 0 1 0 128 128 128 128 0 0 0-128-128zM194.016 611.008A190.752 190.752 0 0 1 224 608a194.88 194.88 0 1 1-46.656 6.4 211.968 211.968 0 0 0-45.376 13.856A378.336 378.336 0 0 1 264.672 282.464a222.624 222.624 0 0 0 26.912 61.92A318.816 318.816 0 0 0 192 576a322.144 322.144 0 0 0 2.016 35.008zM96 800a128 128 0 1 0 128-128 128 128 0 0 0-128 128z" p-id="1863"></path></svg>