<?xml version="1.0" standalone="no"?><!DOCTYPE svg PUBLIC "-//W3C//DTD SVG 1.1//EN" "http://www.w3.org/Graphics/SVG/1.1/DTD/svg11.dtd"><svg t="1667876821110" class="icon" viewBox="0 0 1024 1024" version="1.1" xmlns="http://www.w3.org/2000/svg" p-id="1814" xmlns:xlink="http://www.w3.org/1999/xlink" width="200" height="200"><path d="M939.52 84.626286a288.182857 288.182857 0 0 0-407.990857 0L402.285714 213.796571l68.022857 68.022858 129.170286-129.243429c71.753143-71.68 192.804571-79.286857 272.018286 0 79.286857 79.36 71.68 200.338286 0 272.091429l-129.170286 129.170285 68.096 68.096 129.170286-129.170285a288.841143 288.841143 0 0 0-0.073143-408.137143z m-514.779429 787.017143c-71.753143 71.68-192.804571 79.286857-272.018285 0-79.36-79.433143-71.68-200.411429 0-272.091429l129.170285-129.170286-68.096-68.169143-129.170285 129.243429a288.256 288.256 0 0 0 0 407.990857 288.329143 288.329143 0 0 0 407.917714 0l129.243429-129.243428-68.022858-68.022858-129.024 129.462858zM176.493714 108.544a10.678857 10.678857 0 0 0-15.067428 0l-52.809143 52.809143a10.678857 10.678857 0 0 0 0 15.067428L847.725714 915.675429c4.169143 4.169143 10.971429 4.169143 15.067429 0l52.809143-52.736a10.678857 10.678857 0 0 0 0-15.067429L176.493714 108.617143z" p-id="1815"></path></svg>