<?xml version="1.0" standalone="no"?><!DOCTYPE svg PUBLIC "-//W3C//DTD SVG 1.1//EN" "http://www.w3.org/Graphics/SVG/1.1/DTD/svg11.dtd"><svg t="1666333992467" class="icon" viewBox="0 0 1024 1024" version="1.1" xmlns="http://www.w3.org/2000/svg" p-id="1557" xmlns:xlink="http://www.w3.org/1999/xlink" width="200" height="200"><path d="M928 128h-117.333333v-21.333333a21.333333 21.333333 0 0 0-42.666667 0v21.333333H554.666667v-21.333333a21.333333 21.333333 0 0 0-42.666667 0v21.333333H298.666667v-21.333333a21.333333 21.333333 0 0 0-42.666667 0v21.333333H138.666667a53.393333 53.393333 0 0 0-53.333334 53.333333v704a53.393333 53.393333 0 0 0 53.333334 53.333334h789.333333a53.393333 53.393333 0 0 0 53.333333-53.333334V181.333333a53.393333 53.393333 0 0 0-53.333333-53.333333zM138.666667 170.666667h117.333333v21.333333a21.333333 21.333333 0 0 0 42.666667 0v-21.333333h213.333333v21.333333a21.333333 21.333333 0 0 0 42.666667 0v-21.333333h213.333333v21.333333a21.333333 21.333333 0 0 0 42.666667 0v-21.333333h117.333333a10.666667 10.666667 0 0 1 10.666667 10.666666v160H128V181.333333a10.666667 10.666667 0 0 1 10.666667-10.666666z m789.333333 725.333333H138.666667a10.666667 10.666667 0 0 1-10.666667-10.666667V384h810.666667v501.333333a10.666667 10.666667 0 0 1-10.666667 10.666667zM384 490.666667a21.333333 21.333333 0 1 1-21.333333-21.333334 21.333333 21.333333 0 0 1 21.333333 21.333334z m128 128a21.333333 21.333333 0 1 1-21.333333-21.333334 21.333333 21.333333 0 0 1 21.333333 21.333334z m0 128a21.333333 21.333333 0 1 1-21.333333-21.333334 21.333333 21.333333 0 0 1 21.333333 21.333334zM384 618.666667a21.333333 21.333333 0 1 1-21.333333-21.333334 21.333333 21.333333 0 0 1 21.333333 21.333334zM256 490.666667a21.333333 21.333333 0 1 1-21.333333-21.333334 21.333333 21.333333 0 0 1 21.333333 21.333334z m0 256a21.333333 21.333333 0 1 1-21.333333-21.333334 21.333333 21.333333 0 0 1 21.333333 21.333334z m0-128a21.333333 21.333333 0 1 1-21.333333-21.333334 21.333333 21.333333 0 0 1 21.333333 21.333334z m256-128a21.333333 21.333333 0 1 1-21.333333-21.333334 21.333333 21.333333 0 0 1 21.333333 21.333334z m-128 256a21.333333 21.333333 0 1 1-21.333333-21.333334 21.333333 21.333333 0 0 1 21.333333 21.333334z m298.666667-256a21.333333 21.333333 0 0 1-21.333334 21.333333h-42.666666a21.333333 21.333333 0 0 1 0-42.666667h42.666666a21.333333 21.333333 0 0 1 21.333334 21.333334z m170.666666 0a21.333333 21.333333 0 0 1-21.333333 21.333333h-42.666667a21.333333 21.333333 0 0 1 0-42.666667h42.666667a21.333333 21.333333 0 0 1 21.333333 21.333334z m0 128a21.333333 21.333333 0 0 1-21.333333 21.333333h-42.666667a21.333333 21.333333 0 0 1 0-42.666667h42.666667a21.333333 21.333333 0 0 1 21.333333 21.333334z m-170.666666 0a21.333333 21.333333 0 0 1-21.333334 21.333333h-42.666666a21.333333 21.333333 0 0 1 0-42.666667h42.666666a21.333333 21.333333 0 0 1 21.333334 21.333334z m0 128a21.333333 21.333333 0 0 1-21.333334 21.333333h-42.666666a21.333333 21.333333 0 0 1 0-42.666667h42.666666a21.333333 21.333333 0 0 1 21.333334 21.333334z" p-id="1558"></path></svg>