<?xml version="1.0" standalone="no"?><!DOCTYPE svg PUBLIC "-//W3C//DTD SVG 1.1//EN" "http://www.w3.org/Graphics/SVG/1.1/DTD/svg11.dtd"><svg t="1655710443512" class="icon" viewBox="0 0 1024 1024" version="1.1" xmlns="http://www.w3.org/2000/svg" p-id="13040" xmlns:xlink="http://www.w3.org/1999/xlink" width="200" height="200"><defs><style type="text/css">@font-face { font-family: feedback-iconfont; src: url("//at.alicdn.com/t/font_1031158_u69w8yhxdu.woff2?t=1630033759944") format("woff2"), url("//at.alicdn.com/t/font_1031158_u69w8yhxdu.woff?t=1630033759944") format("woff"), url("//at.alicdn.com/t/font_1031158_u69w8yhxdu.ttf?t=1630033759944") format("truetype"); }
</style></defs><path d="M512 64C323.2 64 120 120.96 120 246.016l0 531.968C120 902.976 323.2 960 512 960s392-57.024 392-182.016L904 246.016C904 120.96 700.736 64 512 64zM848 777.984c0 69.568-150.464 126.016-336 126.016s-336-56.448-336-126.016l0-104.64c57.856 59.648 197.376 90.624 336 90.624s278.144-30.976 336-90.624L848 777.984zM848 609.984l-0.128 0c0 0.256 0.128 0.64 0.128 0.896 0 69.12-150.464 125.12-336 125.12s-336-56-336-125.12c0-0.256 0.128-0.64 0.128-0.896L176 609.984 176 505.344C233.856 564.992 373.376 595.968 512 595.968s278.144-30.976 336-90.624L848 609.984zM848 441.984l-0.128 0c0 0.256 0.128 0.64 0.128 0.896C848 512 697.536 568 512 568S176 512 176 442.88c0-0.256 0.128-0.64 0.128-0.896L176 441.984 176 345.792C249.344 401.664 383.872 428.032 512 428.032s262.656-26.304 336-82.176L848 441.984zM512 371.968c-185.536 0-336-56.448-336-126.016 0-69.632 150.464-126.016 336-126.016s336 56.384 336 126.016C848 315.584 697.536 371.968 512 371.968zM764.032 764.032c15.488 0 28.032 12.48 28.032 28.032s-12.48 28.032-28.032 28.032S736 807.488 736 792 748.48 764.032 764.032 764.032zM764.032 595.968c15.488 0 28.032 12.48 28.032 28.032s-12.48 28.032-28.032 28.032S736 639.488 736 624 748.48 595.968 764.032 595.968zM764.032 428.032c15.488 0 28.032 12.48 28.032 28.032s-12.48 28.032-28.032 28.032S736 471.488 736 456 748.48 428.032 764.032 428.032z" p-id="13041"></path></svg>