<?xml version="1.0" standalone="no"?><!DOCTYPE svg PUBLIC "-//W3C//DTD SVG 1.1//EN" "http://www.w3.org/Graphics/SVG/1.1/DTD/svg11.dtd"><svg t="1666856002116" class="icon" viewBox="0 0 1024 1024" version="1.1" xmlns="http://www.w3.org/2000/svg" p-id="1434" xmlns:xlink="http://www.w3.org/1999/xlink" width="200" height="200"><path d="M898.587876 769.965253a332.07596 332.07596 0 0 0-279.893334-151.376162H405.361209a332.07596 332.07596 0 0 0-279.893333 151.427879 316.871111 316.871111 0 0 0-24.979394 46.80404A516.085657 516.085657 0 0 0 149.981815 874.020202a512 512 0 0 0 724.040404 0 521.102222 521.102222 0 0 0 49.441616-57.199192 324.783838 324.783838 0 0 0-24.875959-46.855757z" p-id="1435"></path><path d="M874.022219 149.979798A512 512 0 0 0 0.002017 512a508.224646 508.224646 0 0 0 100.486465 304.82101A516.085657 516.085657 0 0 0 149.981815 874.020202a512 512 0 0 0 724.040404 0 521.102222 521.102222 0 0 0 49.441616-57.199192A512.258586 512.258586 0 0 0 874.022219 149.979798z m24.513939 619.985455a472.488081 472.488081 0 0 1-58.078383 70.542222 464.575354 464.575354 0 0 1-656.808081 0 471.195152 471.195152 0 0 1-58.026667-70.490505A464.678788 464.678788 0 0 1 840.509492 183.492525a465.040808 465.040808 0 0 1 58.078384 586.472728z" p-id="1436"></path><path d="M512.002017 382.758788m-178.941414 0a178.941414 178.941414 0 1 0 357.882828 0 178.941414 178.941414 0 1 0-357.882828 0Z" p-id="1437"></path></svg>