<?xml version="1.0" standalone="no"?><!DOCTYPE svg PUBLIC "-//W3C//DTD SVG 1.1//EN" "http://www.w3.org/Graphics/SVG/1.1/DTD/svg11.dtd"><svg t="1659750708492" class="icon" viewBox="0 0 1024 1024" version="1.1" xmlns="http://www.w3.org/2000/svg" p-id="1038" xmlns:xlink="http://www.w3.org/1999/xlink" width="200" height="200"><defs><style type="text/css">@font-face { font-family: feedback-iconfont; src: url("//at.alicdn.com/t/font_1031158_u69w8yhxdu.woff2?t=1630033759944") format("woff2"), url("//at.alicdn.com/t/font_1031158_u69w8yhxdu.woff?t=1630033759944") format("woff"), url("//at.alicdn.com/t/font_1031158_u69w8yhxdu.ttf?t=1630033759944") format("truetype"); }
</style></defs><path d="M587.75 504.1h-64.53V400.53h-0.04c0-4.39-2.62-8.56-6.93-10.34-5.71-2.35-12.24 0.38-14.59 6.09l-75.42 183.77a11.25 11.25 0 0 0-1.21 5.04c0 6.2 5.02 11.22 11.22 11.22h64.53v103.56h0.03c0.01 4.4 2.63 8.58 6.94 10.34 5.7 2.35 12.24-0.37 14.59-6.09l75.44-183.82c0.76-1.5 1.19-3.18 1.19-4.98 0-6.2-5.02-11.22-11.22-11.22z" p-id="1039"></path><path d="M746.61 251.56c-0.01-15.84-6.43-30.17-16.75-40.49-10.4-10.4-24.79-16.86-40.63-16.88v-0.11h-96.82V143.1c0-17.6-14.4-32.01-32.01-32.01h-96.78c-17.61 0-32.01 14.41-32.01 32.01v50.99h-96.83v0.11a57.22 57.22 0 0 0-40.49 16.76c-10.4 10.4-16.86 24.79-16.88 40.63h-0.1v603.86h0.1c0.02 15.83 6.43 30.15 16.76 40.48 10.4 10.4 24.79 16.88 40.63 16.88v0.11H689.25v-0.11a57.194 57.194 0 0 0 40.49-16.75c10.4-10.4 16.86-24.77 16.88-40.62h0.11V251.57h-0.12z m-55.86 603.87c0 0.34-0.18 0.7-0.45 0.97-0.34 0.33-0.73 0.54-1.07 0.54v-0.11H334.78v0.11c-0.36 0-0.69-0.17-0.97-0.45-0.34-0.32-0.56-0.71-0.56-1.05h0.12V251.59h-0.12c0-0.36 0.19-0.71 0.45-0.97 0.34-0.34 0.73-0.56 1.06-0.56v0.11H689.21v-0.11c0.35 0 0.71 0.19 0.97 0.45 0.34 0.34 0.55 0.73 0.55 1.07h-0.12v603.86h0.14z" p-id="1040"></path></svg>