<?xml version="1.0" standalone="no"?><!DOCTYPE svg PUBLIC "-//W3C//DTD SVG 1.1//EN" "http://www.w3.org/Graphics/SVG/1.1/DTD/svg11.dtd"><svg t="1660209045876" class="icon" viewBox="0 0 1024 1024" version="1.1" xmlns="http://www.w3.org/2000/svg" p-id="1055" xmlns:xlink="http://www.w3.org/1999/xlink" width="200" height="200"><defs><style type="text/css">@font-face { font-family: feedback-iconfont; src: url("//at.alicdn.com/t/font_1031158_u69w8yhxdu.woff2?t=1630033759944") format("woff2"), url("//at.alicdn.com/t/font_1031158_u69w8yhxdu.woff?t=1630033759944") format("woff"), url("//at.alicdn.com/t/font_1031158_u69w8yhxdu.ttf?t=1630033759944") format("truetype"); }
</style></defs><path d="M512 1024c-153.942857 0-253.142857-9.371429-311.885714-29.485714-60.457143-20.685714-89.828571-56.8-89.828572-110.4 0-2.514286-0.114286-5.257143-0.228571-8-0.457143-9.942857-1.028571-22.4 3.771428-36.114286 0.114286-0.228571 0.114286-0.342857 0.228572-0.571429-2.857143-8.914286-4.228571-18.171429-4.342857-27.428571V771.428571c0-13.6 3.085714-27.085714 8.914285-39.314285-5.828571-12.457143-8.914286-25.942857-8.914285-39.542857v-40.457143c0-13.6 3.085714-26.971429 8.914285-39.2-5.828571-12.228571-8.914286-25.6-8.914285-39.2v-40.571429c0-13.828571 3.085714-27.428571 9.142857-39.771428-2.4-5.828571-4.342857-12-5.714286-18.171429-4-18.514286-3.657143-38.057143-3.2-60.685714 0.114286-7.657143 0.342857-15.542857 0.342857-24 0-66.857143 35.2-130.857143 99.085715-180 44.685714-34.4 102.4-60.571429 166.4-75.885715-1.371429-8.457143-1.371429-16.914286-1.371429-25.714285v-1.142857-6.742858c-0.228571-18.971429-0.685714-47.542857 22.171429-70.628571C421.257143 5.142857 460.571429 0 512 0s90.742857 5.142857 115.542857 30.285714c22.857143 23.2 22.4 51.771429 22.171429 70.628572v7.885714c0 8.685714 0 17.142857-1.371429 25.714286 64 15.428571 121.714286 41.6 166.4 75.885714 63.885714 49.142857 99.085714 113.028571 99.085714 180 0 8.457143 0.114286 16.457143 0.342858 24 0.457143 22.628571 0.8 42.171429-3.2 60.685714-1.371429 6.285714-3.2 12.342857-5.714286 18.171429 6.057143 12.342857 9.142857 25.942857 9.142857 39.771428V573.714286c0 13.6-3.085714 26.971429-8.914286 39.2 5.828571 12.228571 8.914286 25.6 8.914286 39.2V692.571429c0 13.6-3.085714 27.085714-8.914286 39.314285 5.942857 12.228571 9.028571 25.714286 9.028572 39.314286v40.457143c0 9.257143-1.485714 18.514286-4.342857 27.428571 0.114286 0.228571 0.114286 0.457143 0.228571 0.571429 4.8 13.714286 4.228571 26.171429 3.771429 36.114286-0.114286 2.857143-0.228571 5.485714-0.228572 8 0 53.6-29.371429 89.714286-89.828571 110.4C765.142857 1014.628571 665.942857 1024 512 1024z" fill="#25467A" p-id="1056"></path><path d="M439.314286 166.514286c0-37.371429-6.057143-59.771429 72.685714-59.771429s72.685714 22.4 72.685714 59.771429 6.171429 38.4-72.685714 38.4-72.685714-1.028571-72.685714-38.4z" fill="#E1F5FE" p-id="1057"></path><path d="M866.285714 573.714286v-40.571429c0-16-9.028571-30.742857-23.314285-37.942857 28.914286-17.485714 22.742857-48.8 22.742857-104.8 0-123.542857-158.4-223.657143-353.714286-223.657143s-353.714286 100.114286-353.714286 223.657143c0 56-6.171429 87.314286 22.742857 104.8-14.285714 7.314286-23.314286 21.942857-23.314285 37.942857V573.714286c0 17.028571 10.285714 32.457143 25.942857 39.2-15.657143 6.742857-25.942857 22.057143-25.942857 39.2V692.571429c0 17.257143 10.4 32.8 26.4 39.314285-15.885714 6.628571-26.285714 22.171429-26.4 39.314286v40.457143c0 12.228571 5.257143 23.885714 14.514285 32-18.742857 7.542857-13.942857 20-13.942857 40.342857 0 50.742857 35.085714 91.885714 353.714286 91.885714s353.714286-41.142857 353.714286-92c0-20.342857 4.8-32.685714-13.942857-40.342857 9.257143-8.114286 14.514286-19.771429 14.514285-32v-40.457143c0-17.257143-10.4-32.685714-26.285714-39.314285 15.885714-6.628571 26.285714-22.171429 26.285714-39.314286v-40.457143c0-17.028571-10.285714-32.457143-25.942857-39.2C856 606.171429 866.285714 590.742857 866.285714 573.714286z" fill="#FFFFFF" p-id="1058"></path><path d="M512 953.142857c-143.885714 0-238.4-8.457143-288.914286-25.714286-17.828571-6.171429-29.942857-13.257143-36-21.371428-4.114286-5.6-5.828571-12-5.828571-22.057143 0-4.228571-0.114286-8-0.342857-11.314286-0.114286-2.514286-0.228571-5.6-0.228572-7.771428l0.228572-0.114286c11.657143-4.685714 17.371429-18.057143 12.571428-29.714286-1.371429-3.314286-3.428571-6.171429-6.057143-8.571428-4.342857-3.771429-6.742857-9.142857-6.742857-14.857143v-40.457143c0-8 4.8-15.2 12.228572-18.285714 18.742857-7.771429 18.742857-34.4 0-42.171429-7.428571-3.085714-12.228571-10.285714-12.228572-18.285714v-40.457143c0-7.885714 4.8-15.085714 12.114286-18.171429 18.514286-7.885714 18.514286-34.057143 0-42.057142-7.314286-3.085714-12.114286-10.171429-12.114286-18.171429v-40.571429c0-7.428571 4.228571-14.285714 10.857143-17.6 11.2-5.714286 15.657143-19.542857 9.942857-30.742857-1.942857-3.771429-4.914286-6.971429-8.457143-9.142857-11.885714-7.2-12.914286-17.714286-12.114285-59.885714 0.114286-7.657143 0.342857-16.228571 0.342857-25.371429 0-51.657143 33.028571-100.914286 92.914286-138.857143 63.2-40 147.657143-9.6 237.942857-9.6S686.857143 211.428571 750.057143 251.428571c60 37.942857 92.914286 87.2 92.914286 138.857143 0 9.142857 0.114286 17.714286 0.342857 25.371429 0.8 42.171429-0.228571 52.685714-12.114286 59.885714-10.742857 6.514286-14.285714 20.571429-7.657143 31.428572 2.171429 3.657143 5.371429 6.628571 9.142857 8.457142 6.628571 3.314286 10.857143 10.171429 10.857143 17.6V573.714286c0 7.885714-4.8 15.085714-12.114286 18.171428-18.514286 7.885714-18.514286 34.171429 0 42.057143 7.314286 3.085714 12.114286 10.171429 12.114286 18.171429V692.571429c0 8-4.8 15.2-12.228571 18.285714-18.742857 7.771429-18.742857 34.4 0 42.171428 7.428571 3.085714 12.228571 10.285714 12.228571 18.285715v40.457143c0 5.714286-2.514286 11.085714-6.742857 14.857142-9.485714 8.342857-10.4 22.742857-2.057143 32.228572 2.4 2.628571 5.257143 4.685714 8.571429 6.057143l0.228571 0.114285c0 2.171429-0.114286 5.257143-0.228571 7.771429-0.114286 3.314286-0.342857 7.085714-0.342857 11.314286 0 10.171429-1.714286 16.571429-5.828572 22.057143-6.057143 8-18.171429 15.2-36 21.371428-50.628571 17.142857-145.142857 25.6-289.142857 25.6z" fill="#81D4FA" p-id="1059"></path><path d="M831.314286 633.942857c3.542857 1.485714 6.628571 4.114286 8.8 7.314286 2.171429 3.2 3.314286 6.971429 3.314285 10.857143V692.571429c0 8-4.8 15.2-12.228571 18.285714-11.657143 4.914286-17.142857 18.285714-12.342857 29.942857 2.285714 5.6 6.742857 9.942857 12.342857 12.342857 3.657143 1.485714 6.742857 4 8.914286 7.314286 2.171429 3.2 3.314286 7.085714 3.314285 10.971428v40.457143c0 5.714286-2.514286 11.085714-6.742857 14.857143-9.485714 8.342857-10.4 22.742857-2.057143 32.228572 2.4 2.628571 5.257143 4.685714 8.571429 6.057142l0.228571 0.114286c0 2.171429-0.114286 5.257143-0.228571 7.771429-0.114286 3.314286-0.342857 7.085714-0.342857 11.314285 0 10.171429-1.714286 16.571429-5.828572 22.057143-6.057143 8-18.171429 15.2-36 21.371429C750.514286 944.685714 656 953.142857 512 953.142857h-14.171429c136-0.571429 225.942857-8.914286 274.857143-25.714286 17.828571-6.171429 29.942857-13.257143 36-21.371428 4.228571-5.6 5.828571-12 5.828572-22.057143 0-4.228571 0.228571-8 0.342857-11.314286 0.114286-2.514286 0.228571-5.6 0.228571-7.771428l-0.228571-0.114286c-11.657143-4.685714-17.371429-18.057143-12.571429-29.714286 1.371429-3.314286 3.428571-6.171429 6.057143-8.571428 4.342857-3.771429 6.742857-9.142857 6.742857-14.857143v-40.457143c0-3.885714-1.142857-7.771429-3.314285-10.971429-2.171429-3.314286-5.257143-5.828571-8.914286-7.314285-11.657143-4.914286-17.142857-18.285714-12.342857-29.942857 2.285714-5.6 6.742857-9.942857 12.342857-12.342858 7.428571-3.085714 12.228571-10.285714 12.228571-18.285714v-40.457143c0-3.885714-1.142857-7.657143-3.314285-10.857143s-5.257143-5.828571-8.8-7.314285c-18.514286-7.885714-18.514286-34.057143 0-42.057143 7.314286-3.085714 12.114286-10.285714 12.114285-18.171429v-40.571428c0-3.657143-1.028571-7.2-2.971428-10.285715-1.942857-3.085714-4.685714-5.714286-8-7.314285-11.2-5.714286-15.657143-19.542857-9.942857-30.742857 1.942857-3.771429 4.914286-6.971429 8.457142-9.142858 11.885714-7.2 12.914286-17.714286 12.114286-59.885714-0.114286-7.657143-0.342857-16.228571-0.342857-25.371428 0-51.657143-33.028571-100.914286-92.914286-138.857143-21.371429-13.485714-45.142857-18.971429-70.742857-20.342857 36.457143-1.6 69.942857 1.942857 98.971429 20.342857 60 37.942857 92.914286 87.2 92.914285 138.857143 0 9.142857 0.114286 17.714286 0.342858 25.371428 0.8 42.171429-0.228571 52.685714-12.114286 59.885714-10.742857 6.514286-14.285714 20.571429-7.657143 31.428572 2.171429 3.657143 5.371429 6.628571 9.142857 8.457143 3.314286 1.6 6.057143 4.228571 8 7.314285 1.942857 3.085714 2.971429 6.628571 2.971429 10.285715V573.714286c0 7.885714-4.8 15.085714-12.114286 18.171428-18.285714 7.885714-18.285714 34.057143 0.114286 42.057143z" fill="#0288D1" p-id="1060"></path><path d="M192.685714 633.942857c-3.542857 1.485714-6.628571 4.114286-8.8 7.314286-2.171429 3.2-3.314286 6.971429-3.314285 10.857143V692.571429c0 8 4.8 15.2 12.228571 18.285714 11.657143 4.914286 17.142857 18.285714 12.342857 29.942857-2.285714 5.6-6.742857 9.942857-12.342857 12.342857-3.657143 1.485714-6.742857 4-8.914286 7.314286-2.171429 3.2-3.314286 7.085714-3.314285 10.971428v40.457143c0 5.714286 2.514286 11.085714 6.742857 14.857143 9.485714 8.342857 10.4 22.742857 2.057143 32.228572-2.4 2.628571-5.257143 4.685714-8.571429 6.057142l-0.228571 0.114286c0 2.171429 0.114286 5.257143 0.228571 7.771429 0.114286 3.314286 0.342857 7.085714 0.342857 11.314285 0 10.171429 1.714286 16.571429 5.828572 22.057143 6.057143 8 18.171429 15.2 36 21.371429 50.628571 17.028571 145.142857 25.485714 289.028571 25.485714h14.171429c-136-0.571429-225.942857-8.914286-274.857143-25.714286-17.828571-6.171429-29.942857-13.257143-36-21.371428-4.114286-5.6-5.828571-12-5.828572-22.057143 0-4.228571-0.114286-8-0.342857-11.314286-0.114286-2.514286-0.228571-5.6-0.228571-7.771428l0.228571-0.114286c11.657143-4.685714 17.371429-18.057143 12.571429-29.714286-1.371429-3.314286-3.428571-6.171429-6.057143-8.571428-4.342857-3.771429-6.742857-9.142857-6.742857-14.857143v-40.457143c0-3.885714 1.142857-7.771429 3.314285-10.971429 2.171429-3.314286 5.257143-5.828571 8.914286-7.314285 11.657143-4.914286 17.142857-18.285714 12.342857-29.942857-2.285714-5.6-6.742857-9.942857-12.342857-12.342858-7.428571-3.085714-12.228571-10.285714-12.228571-18.285714v-40.457143c0-3.885714 1.142857-7.657143 3.314285-10.857143s5.257143-5.828571 8.8-7.314285c18.514286-7.885714 18.514286-34.057143 0-42.057143-7.314286-3.085714-12.114286-10.285714-12.114285-18.171429v-40.571428c0-3.657143 1.028571-7.2 2.971428-10.285715 1.942857-3.085714 4.685714-5.714286 8-7.314285 11.2-5.714286 15.657143-19.542857 9.942857-30.742857-1.942857-3.771429-4.914286-6.971429-8.457142-9.142858-11.885714-7.2-12.914286-17.714286-12.114286-59.885714 0.114286-7.657143 0.342857-16.228571 0.342857-25.371428 0-51.657143 33.028571-100.914286 92.914286-138.857143 21.371429-13.485714 45.142857-18.971429 70.742857-20.342857-36.457143-1.6-69.942857 1.942857-98.971429 20.342857-59.885714 37.942857-92.914286 87.2-92.914285 138.857143 0 9.142857-0.114286 17.714286-0.342858 25.371428-0.8 42.171429 0.228571 52.685714 12.114286 59.885714 10.742857 6.514286 14.285714 20.571429 7.657143 31.428572-2.171429 3.657143-5.371429 6.628571-9.142857 8.457143-3.314286 1.6-6.057143 4.228571-8 7.314285-1.942857 3.085714-2.971429 6.628571-2.971429 10.285715V573.714286c0 7.885714 4.8 15.085714 12.114286 18.171428 18.4 7.885714 18.4 34.057143-0.114286 42.057143z" fill="#B3E5FC" p-id="1061"></path><path d="M422.4 107.771429c0-37.371429-7.428571-59.771429 89.6-59.771429s89.6 22.4 89.6 59.771429 0.914286 38.4-89.6 38.4-89.6-1.028571-89.6-38.4z" fill="#1565C0" p-id="1062"></path><path d="M512 635.771429c-38.171429 0-69.142857-30.971429-69.142857-69.257143 0-7.657143 6.171429-13.828571 13.828571-13.942857 7.314286 0 13.485714 5.714286 13.828572 13.028571v0.8c0.342857 22.971429 19.314286 41.257143 42.171428 40.8 22.4-0.342857 40.457143-18.4 40.8-40.8-0.228571-7.657143 5.828571-14.057143 13.371429-14.285714s14.057143 5.828571 14.285714 13.371428v0.8c0 38.514286-30.857143 69.485714-69.142857 69.485715zM332.114286 455.885714c0.342857 22.971429 19.2 41.257143 42.171428 40.8 22.4-0.342857 40.457143-18.4 40.8-40.8-0.342857-22.971429-19.314286-41.257143-42.171428-40.8-22.4 0.342857-40.457143 18.4-40.8 40.8zM608.8 455.885714c0.342857 22.971429 19.2 41.257143 42.171429 40.914286 22.4-0.342857 40.457143-18.4 40.914285-40.8v-0.114286c-0.342857-22.971429-19.314286-41.257143-42.171428-40.8-22.4 0.342857-40.457143 18.4-40.914286 40.8z" fill="#25467A" p-id="1063"></path><path d="M318.285714 525.028571h-55.314285c-15.314286 0.342857-27.428571 12.914286-27.085715 28.228572 0.342857 14.857143 12.228571 26.857143 27.085715 27.085714h55.428571c15.314286 0.342857 27.885714-11.771429 28.228571-27.085714 0.342857-15.314286-11.771429-27.885714-27.085714-28.228572h-1.257143z m442.742857 0h-55.314285c-15.314286 0.342857-27.428571 12.914286-27.085715 28.228572 0.342857 14.857143 12.228571 26.857143 27.085715 27.085714h55.314285c15.314286-0.342857 27.428571-12.914286 27.085715-28.228571-0.228571-14.742857-12.228571-26.742857-27.085715-27.085715zM514.057143 772.228571c-157.028571 0-225.6-13.828571-228.457143-14.4-6.171429-1.142857-10.4-7.085714-9.257143-13.257142 1.142857-6.171429 7.085714-10.4 13.257143-9.257143 0.228571 0 0.342857 0.114286 0.571429 0.114285 23.428571 4.8 100.457143 13.942857 223.885714 13.942858 154.857143 0 232.114286-13.828571 232.8-13.942858 6.171429-1.142857 12.114286 2.971429 13.257143 9.142858s-2.971429 12.114286-9.142857 13.257142c-3.2 0.685714-80 14.4-236.914286 14.4zM514.057143 873.828571c-157.028571 0-225.6-13.828571-228.457143-14.4-6.285714-1.028571-10.4-6.857143-9.485714-13.142857 1.028571-6.285714 6.857143-10.4 13.142857-9.485714 0.342857 0 0.571429 0.114286 0.914286 0.228571 23.428571 4.8 100.457143 13.942857 223.885714 13.942858 154.857143 0 232.114286-13.828571 232.8-13.942858 6.171429-1.142857 12.114286 2.971429 13.257143 9.142858s-2.971429 12.114286-9.142857 13.257142c-3.2 0.685714-80 14.4-236.914286 14.4z" fill="#E1F5FE" p-id="1064"></path></svg>