<?xml version="1.0" standalone="no"?><!DOCTYPE svg PUBLIC "-//W3C//DTD SVG 1.1//EN" "http://www.w3.org/Graphics/SVG/1.1/DTD/svg11.dtd"><svg t="1666334004833" class="icon" viewBox="0 0 1024 1024" version="1.1" xmlns="http://www.w3.org/2000/svg" p-id="1703" xmlns:xlink="http://www.w3.org/1999/xlink" width="200" height="200"><path d="M902.4 635.1c-5.3-2.4-99.1-43.2-204.3-65.3 54.1-34.5 86.9-94.3 86.9-158.5v-112C785 195.5 700.7 111 597.1 111c-53.9 0-105.2 23.3-140.7 63.9-30.4 34.3-47.2 78.6-47.3 124.4v112c0 63.2 31.4 119.2 79.3 153.3-115.7 20-225.4 67.9-230.5 70.2-31.2 12.8-54.6 47.8-54.6 81.6v135.2h0.6c4.6 34.9 34.3 60.9 69.5 60.9h612.8c30.7 0 58.1-20 68.2-49.9l1.8-5.3V716.4c0-34-23.6-69.2-53.8-81.3" p-id="1704"></path><path d="M308.6 557.9c37.4-11.7 55.1-18.2 55.1-18.2s24.2-10.7 17.8-32.1c-15-28.5-25.7-50.6-25.7-134V265.2s6.4-52.7 26.7-57.7c1.6-1.7 1.9-4.3 1.2-7.2-5.3-12.6-17.7-20.9-31.5-20.9-78.3 0.1-141.8 63.6-141.8 142v90.1c0 35 13.2 66.7 34.3 91.5-67.1 20.6-125.7 53.1-136.4 59.3-24.4 11.6-41.9 39.3-41.9 66.8v98.3c0 18.9 15.3 34.2 34.2 34.2 17.3-0.1 31.7-13.2 33.5-30.4 0.1-1.3 0.8-2.4 0.8-3.8v-15.7c2.7-32.4 14.9-91.2 65.2-118.8 8-3.5 16.1-6.9 24.3-10.1 28.2-7.9 56.3-16.2 84.2-24.9" p-id="1705"></path></svg>