<?xml version="1.0" standalone="no"?><!DOCTYPE svg PUBLIC "-//W3C//DTD SVG 1.1//EN" "http://www.w3.org/Graphics/SVG/1.1/DTD/svg11.dtd"><svg t="1655710792532" class="icon" viewBox="0 0 1024 1024" version="1.1" xmlns="http://www.w3.org/2000/svg" p-id="17054" xmlns:xlink="http://www.w3.org/1999/xlink" width="200" height="200"><defs><style type="text/css">@font-face { font-family: feedback-iconfont; src: url("//at.alicdn.com/t/font_1031158_u69w8yhxdu.woff2?t=1630033759944") format("woff2"), url("//at.alicdn.com/t/font_1031158_u69w8yhxdu.woff?t=1630033759944") format("woff"), url("//at.alicdn.com/t/font_1031158_u69w8yhxdu.ttf?t=1630033759944") format("truetype"); }
</style></defs><path d="M918.905263 72.757895H105.094737c-37.726316 0-70.063158 32.336842-70.063158 70.063158v210.189473c0 37.726316 32.336842 70.063158 70.063158 70.063158H916.210526c37.726316 0 70.063158-32.336842 70.063158-70.063158V142.821053c2.694737-37.726316-29.642105-70.063158-67.368421-70.063158z m32.336842 280.252631c0 18.863158-13.473684 32.336842-32.336842 32.336842H105.094737c-18.863158 0-32.336842-16.168421-32.336842-32.336842V142.821053c0-18.863158 16.168421-32.336842 32.336842-32.336842h813.810526c18.863158 0 32.336842 13.473684 32.336842 32.336842v210.189473z" p-id="17055"></path><path d="M334.147368 229.052632H185.936842c-10.778947 0-18.863158 8.084211-18.863158 18.863157s8.084211 18.863158 18.863158 18.863158h148.210526c10.778947 0 18.863158-8.084211 18.863158-18.863158s-10.778947-18.863158-18.863158-18.863157zM918.905263 512H105.094737c-37.726316 0-70.063158 32.336842-70.063158 70.063158v210.189474c0 37.726316 32.336842 70.063158 70.063158 70.063157h520.08421c10.778947 0 18.863158-8.084211 18.863158-18.863157s-8.084211-18.863158-18.863158-18.863158H105.094737c-18.863158 0-32.336842-16.168421-32.336842-32.336842v-210.189474c0-18.863158 16.168421-32.336842 32.336842-32.336842h813.810526c18.863158 0 32.336842 13.473684 32.336842 32.336842v110.48421c0 10.778947 8.084211 18.863158 18.863158 18.863158s18.863158-8.084211 18.863158-18.863158v-110.48421c0-37.726316-32.336842-70.063158-70.063158-70.063158z" p-id="17056"></path><path d="M185.936842 668.294737c-10.778947 0-18.863158 8.084211-18.863158 18.863158s8.084211 18.863158 18.863158 18.863158h148.210526c10.778947 0 18.863158-8.084211 18.863158-18.863158s-8.084211-18.863158-18.863158-18.863158H185.936842zM988.968421 786.863158V781.473684v-2.694737l-2.694737-2.694736-2.694737-2.694737-2.694736-2.694737-177.852632-86.231579h-2.694737-2.694737-2.694737-2.694736-2.694737s-2.694737 0-2.694737 2.694737l-2.694737 2.694737-2.694737 2.694736v5.389474l-37.726316 207.494737v10.778947c0 2.694737 0 2.694737 2.694737 5.389474s2.694737 2.694737 5.389474 2.694737h16.168421s2.694737 0 2.694737-2.694737l45.810526-35.031579 32.336842 53.894737c0 2.694737 2.694737 2.694737 5.389474 2.694737l2.694737 2.694737c2.694737 2.694737 5.389474 2.694737 8.08421 2.694736 2.694737 0 5.389474 0 8.084211-2.694736l86.231579-48.505264s0-2.694737 2.694737-2.694736l2.694736-2.694737s0-2.694737 2.694737-2.694737v-2.694737-2.694737-2.694737-2.694736-2.694737l-35.031579-48.505263 48.505264-18.863158h2.694736s2.694737 0 2.694737-2.694737l5.389474-5.389474v-2.694737-2.694737l-2.694737-8.08421z m-97.010526 10.778947s0 2.694737 0 0l-2.694737 2.694737-2.694737 2.694737-2.694737 2.694737v13.473684s0 2.694737 2.694737 2.694737l35.031579 51.2-51.2 29.642105-35.031579-53.894737s-2.694737 0-2.694737-2.694737l-2.694737-2.694736s-2.694737 0-2.694736-2.694737h-2.694737-2.694737-2.694737-2.694737-2.694737L781.473684 862.315789l24.252632-134.736842 115.873684 56.589474-29.642105 13.473684zM865.010526 684.463158l21.557895-16.168421c8.084211-5.389474 8.084211-18.863158 2.694737-26.947369-5.389474-8.084211-18.863158-8.084211-26.947369-2.694736l-21.557894 16.168421c-8.084211 5.389474-8.084211 18.863158-2.694737 26.947368 2.694737 5.389474 8.084211 8.084211 13.473684 8.084211 8.084211 0 10.778947-2.694737 13.473684-5.389474zM797.642105 670.989474c10.778947 0 18.863158-8.084211 18.863158-18.863158v-29.642105c0-10.778947-8.084211-18.863158-18.863158-18.863158s-18.863158 8.084211-18.863158 18.863158v29.642105c0 8.084211 8.084211 18.863158 18.863158 18.863158zM749.136842 689.852632c5.389474 0 10.778947-2.694737 13.473684-5.389474 8.084211-8.084211 8.084211-18.863158 0-26.947369l-24.252631-24.252631c-8.084211-8.084211-18.863158-8.084211-26.947369 0s-8.084211 18.863158 0 26.947368l24.252632 24.252632c2.694737 2.694737 8.084211 5.389474 13.473684 5.389474zM754.526316 724.884211c0-10.778947-8.084211-18.863158-18.863158-18.863158h-43.11579c-10.778947 0-18.863158 8.084211-18.863157 18.863158s8.084211 18.863158 18.863157 18.863157h43.11579c10.778947 0 18.863158-8.084211 18.863158-18.863157z" p-id="17057"></path></svg>