<?xml version="1.0" standalone="no"?><!DOCTYPE svg PUBLIC "-//W3C//DTD SVG 1.1//EN" "http://www.w3.org/Graphics/SVG/1.1/DTD/svg11.dtd"><svg t="1659410534822" class="icon" viewBox="0 0 1024 1024" version="1.1" xmlns="http://www.w3.org/2000/svg" p-id="856" xmlns:xlink="http://www.w3.org/1999/xlink" width="200" height="200"><defs><style type="text/css">@font-face { font-family: feedback-iconfont; src: url("//at.alicdn.com/t/font_1031158_u69w8yhxdu.woff2?t=1630033759944") format("woff2"), url("//at.alicdn.com/t/font_1031158_u69w8yhxdu.woff?t=1630033759944") format("woff"), url("//at.alicdn.com/t/font_1031158_u69w8yhxdu.ttf?t=1630033759944") format("truetype"); }
</style></defs><path d="M228.66 164.081c19.426-14.6 47.01-10.688 61.61 8.737 14.6 19.426 10.688 47.009-8.737 61.61C185.55 306.567 128 419.264 128 541.607c0 212.077 171.923 384 384 384s384-171.923 384-384c0-122.476-57.676-235.281-153.834-307.407-19.44-14.58-23.378-42.16-8.797-61.6 14.581-19.44 42.16-23.378 61.6-8.797C913.054 252.375 984 391.136 984 541.608c0 260.678-211.322 472-472 472s-472-211.322-472-472c0-150.31 70.792-288.937 188.66-377.527zM556 384c0 24.3-19.7 44-44 44s-44-19.7-44-44V75c0-24.3 19.7-44 44-44s44 19.7 44 44v309z" p-id="857"></path></svg>