<?xml version="1.0" standalone="no"?><!DOCTYPE svg PUBLIC "-//W3C//DTD SVG 1.1//EN" "http://www.w3.org/Graphics/SVG/1.1/DTD/svg11.dtd"><svg t="1655710487607" class="icon" viewBox="0 0 1024 1024" version="1.1" xmlns="http://www.w3.org/2000/svg" p-id="13179" xmlns:xlink="http://www.w3.org/1999/xlink" width="200" height="200"><defs><style type="text/css">@font-face { font-family: feedback-iconfont; src: url("//at.alicdn.com/t/font_1031158_u69w8yhxdu.woff2?t=1630033759944") format("woff2"), url("//at.alicdn.com/t/font_1031158_u69w8yhxdu.woff?t=1630033759944") format("woff"), url("//at.alicdn.com/t/font_1031158_u69w8yhxdu.ttf?t=1630033759944") format("truetype"); }
</style></defs><path d="M744.694714 801.12881l0.204657-372.168282c0-63.034276-24.763466-122.487059-69.68562-167.409214-44.922154-44.922154-103.249325-69.68562-166.283601-69.68562-63.034276 0-122.487059 24.763466-167.409214 69.68562-44.922154 44.922154-69.68562 104.374938-69.68562 167.409214l0.306985 372.065954-63.136604 0.102328-0.61397-372.065954c0-40.419706 7.981613-79.7138 23.740182-116.858999 15.144599-35.712601 36.838213-67.843709 64.466873-95.472369s59.759768-49.322274 95.472369-64.466873c37.04287-15.758569 76.336964-23.740182 116.75667-23.740182 40.419706 0 78.588188 7.981613 115.631058 23.740182 35.712601 15.144599 67.843709 36.838213 95.472369 64.466873s49.322274 59.759768 64.466873 95.472369c15.758569 37.04287 23.740182 76.336964 23.740182 116.654342l0 372.065954L744.694714 801.12881z" p-id="13180"></path><path d="M871.274908 863.139802 152.520436 863.139802c-17.498151 0-31.721795-14.223643-31.721795-31.721795s14.223643-31.721795 30.596183-31.721795l718.754472 0c18.623763 0 32.847407 14.223643 32.847407 31.721795S888.773059 863.139802 871.274908 863.139802z" p-id="13181"></path><path d="M608.495653 496.804237 527.860897 496.804237 527.860897 321.515739 413.150794 536.712301 496.650744 536.712301 496.650744 704.019187Z" p-id="13182"></path></svg>