<?xml version="1.0" standalone="no"?><!DOCTYPE svg PUBLIC "-//W3C//DTD SVG 1.1//EN" "http://www.w3.org/Graphics/SVG/1.1/DTD/svg11.dtd"><svg t="1686796751598" class="icon" viewBox="0 0 1024 1024" version="1.1" xmlns="http://www.w3.org/2000/svg" p-id="10112" xmlns:xlink="http://www.w3.org/1999/xlink" width="200" height="200"><path d="M292.581774 219.442363a74.017082 74.017082 0 0 0-73.139409 73.13941v438.836454a74.090221 74.090221 0 0 0 73.139409 73.13941h438.836455a74.090221 74.090221 0 0 0 73.139409-73.13941V292.581773a74.017082 74.017082 0 0 0-73.139409-73.13941H292.581774z m0-73.139409h438.836455c41.177487 0.731394 75.626149 15.066718 103.419124 42.859694 27.792975 27.792975 42.05516 62.314777 42.859694 103.419125v438.836454c-0.731394 41.177487-15.066718 75.626149-42.859694 103.419125-27.792975 27.792975-62.314777 42.05516-103.419124 42.859694H292.581774c-41.177487-0.731394-75.626149-15.066718-103.419125-42.859694-27.792975-27.792975-42.05516-62.314777-42.859694-103.419125V292.581773c0.731394-41.177487 15.066718-75.626149 42.859694-103.419125 27.792975-27.792975 62.314777-42.05516 103.419125-42.859694z m219.418227-146.278818c10.678354 0 19.455083 3.437552 26.330187 10.239517 6.801965 6.875104 10.239517 15.651834 10.239518 26.330188v146.278818h-73.139409v-146.278818c0-10.678354 3.437552-19.455083 10.239517-26.330188A35.618892 35.618892 0 0 1 512.000001 0.024136z m182.848523 0c10.678354 0 19.455083 3.437552 26.330187 10.239517 6.801965 6.875104 10.239517 15.651834 10.239518 26.330188v146.278818H658.278819v-146.278818c0-10.678354 3.437552-19.455083 10.239518-26.330188A35.618892 35.618892 0 0 1 694.848524 0.024136z m-365.697046 0c10.678354 0 19.455083 3.437552 26.330188 10.239517 6.801965 6.875104 10.239517 15.651834 10.239517 26.330188v146.278818H292.581774v-146.278818c0-10.678354 3.437552-19.455083 10.239517-26.330188A35.618892 35.618892 0 0 1 329.151478 0.024136zM512.000001 1023.975864a35.618892 35.618892 0 0 1-26.330187-10.239517 35.618892 35.618892 0 0 1-10.239517-26.330188v-146.278818h73.139409v146.278818a35.618892 35.618892 0 0 1-10.239518 26.330188A35.618892 35.618892 0 0 1 512.000001 1023.975864z m182.848523 0a35.618892 35.618892 0 0 1-26.330187-10.239517 35.618892 35.618892 0 0 1-10.239518-26.330188v-146.278818h73.13941v146.278818a35.618892 35.618892 0 0 1-10.239518 26.330188 35.618892 35.618892 0 0 1-26.330187 10.239517z m-365.697046 0a35.618892 35.618892 0 0 1-26.330187-10.239517 35.618892 35.618892 0 0 1-10.239517-26.330188v-146.278818h73.139409v146.278818a35.618892 35.618892 0 0 1-10.239517 26.330188 35.618892 35.618892 0 0 1-26.330188 10.239517zM0.024137 512c0-10.678354 3.437552-19.455083 10.239517-26.330187A35.618892 35.618892 0 0 1 36.593842 475.430295h146.278818v73.13941h-146.278818a35.618892 35.618892 0 0 1-26.330188-10.239518A35.618892 35.618892 0 0 1 0.024137 512z m0-182.848523c0-10.678354 3.437552-19.455083 10.239517-26.330187A35.618892 35.618892 0 0 1 36.593842 292.581773h146.278818v73.139409h-146.278818a35.618892 35.618892 0 0 1-26.330188-10.239518A35.618892 35.618892 0 0 1 0.024137 329.151477z m0 365.697046c0-10.678354 3.437552-19.455083 10.239517-26.330187A35.618892 35.618892 0 0 1 36.593842 658.278818h146.278818v73.139409h-146.278818a35.618892 35.618892 0 0 1-26.330188-10.239517A35.618892 35.618892 0 0 1 0.024137 694.848523zM1023.975865 512a35.618892 35.618892 0 0 1-10.239517 26.330187 35.618892 35.618892 0 0 1-26.330187 10.239518h-146.278819v-73.13941h146.278819c10.678354 0 19.455083 3.437552 26.330187 10.239518 6.801965 6.875104 10.239517 15.651834 10.239517 26.330187z m0-182.848523a35.618892 35.618892 0 0 1-10.239517 26.330187 35.618892 35.618892 0 0 1-26.330187 10.239518h-146.278819V292.581773h146.278819c10.678354 0 19.455083 3.437552 26.330187 10.239517 6.801965 6.875104 10.239517 15.651834 10.239517 26.330187z m0 365.697046a35.618892 35.618892 0 0 1-10.239517 26.330187 35.618892 35.618892 0 0 1-26.330187 10.239517h-146.278819V658.278818h146.278819c10.678354 0 19.455083 3.437552 26.330187 10.239518 6.801965 6.875104 10.239517 15.651834 10.239517 26.330187z" p-id="10113"></path></svg>