<?xml version="1.0" standalone="no"?><!DOCTYPE svg PUBLIC "-//W3C//DTD SVG 1.1//EN" "http://www.w3.org/Graphics/SVG/1.1/DTD/svg11.dtd"><svg t="1666947786862" class="icon" viewBox="0 0 1024 1024" version="1.1" xmlns="http://www.w3.org/2000/svg" p-id="1554" xmlns:xlink="http://www.w3.org/1999/xlink" width="200" height="200"><path d="M702.932 777.584c-11.692-3.161-23.743 3.758-26.903 15.45-3.165 11.698 3.758 23.744 15.451 26.903 73.027 19.747 105.712 47.546 105.712 66.333 0 14.494-19.804 37.052-75.398 56.907-55.701 19.895-130.205 30.845-209.791 30.845-79.586 0-154.099-10.95-209.799-30.845-55.593-19.855-75.396-42.413-75.396-56.907 0-18.793 32.702-46.602 105.761-66.348 11.698-3.161 18.618-15.201 15.456-26.899-3.159-11.692-15.199-18.617-26.897-15.455-89.119 24.084-138.198 62.687-138.198 108.702 0 26.869 17.359 47.165 31.924 59.459 17.477 14.762 41.905 27.805 72.594 38.766 60.318 21.541 140.063 33.407 224.549 33.407 84.493 0 164.238-11.872 224.556-33.407 30.689-10.961 55.115-24.005 72.595-38.766 14.564-12.295 31.924-32.59 31.924-59.459 0-46-49.056-84.603-138.137-108.686v0zM422.048 826.725c23.419 26.842 56.222 42.223 90.118 42.223h0.005c34.028 0 66.802-15.506 90.080-42.569 7.059-7.696 67.087-73.789 127.916-160.351 88.146-125.43 132.837-229.369 132.837-308.923 0-47.367-9.283-93.344-27.597-136.64-17.684-41.803-42.986-79.343-75.212-111.563-32.219-32.218-69.751-57.526-111.554-75.202-43.302-18.315-89.278-27.603-136.639-27.603-47.367 0-93.344 9.289-136.641 27.603-41.802 17.678-79.342 42.985-111.561 75.202-32.219 32.226-57.526 69.759-75.202 111.563-18.315 43.297-27.603 89.273-27.603 136.64 0 79.552 44.724 183.524 132.929 309.029 61.247 87.146 121.682 153.568 128.124 160.59v0zM375.908 347.29c0-77.421 62.989-140.405 140.402-140.405 77.421 0 140.404 62.986 140.404 140.405 0 77.415-62.982 140.404-140.404 140.404-77.414 0-140.402-62.989-140.402-140.404v0zM375.908 347.29z" p-id="1555"></path></svg>