<?xml version="1.0" standalone="no"?><!DOCTYPE svg PUBLIC "-//W3C//DTD SVG 1.1//EN" "http://www.w3.org/Graphics/SVG/1.1/DTD/svg11.dtd"><svg t="1666940235593" class="icon" viewBox="0 0 1024 1024" version="1.1" xmlns="http://www.w3.org/2000/svg" p-id="1495" xmlns:xlink="http://www.w3.org/1999/xlink" width="200" height="200"><path d="M513.799649 295.742238c-118.176919 0-214.158172 96.181215-214.158173 214.158172 0 118.176919 96.181215 214.158172 214.158173 214.158172 117.976958 0 214.158172-95.781293 214.158172-213.958211s-96.181215-214.358133-214.158172-214.358133z m0 367.328256c-84.383519 0-152.970123-68.586604-152.970124-152.970123s68.586604-152.970123 152.970124-152.970123 152.970123 68.586604 152.970123 152.970123-68.586604 152.970123-152.970123 152.970123z" p-id="1496"></path><path d="M991.306385 480.506151H913.9215c-7.198594-96.581136-48.190588-186.363601-117.377075-255.550088s-158.968951-110.178481-255.550088-117.377075V30.594025c0-16.796719-13.797305-30.594025-30.594025-30.594025s-30.594025 13.797305-30.594024 30.594025v76.984963c-96.381176 7.198594-186.363601 48.190588-255.550088 117.377075S114.077719 383.725054 106.879125 480.506151H30.694005c-16.796719 0-30.594025 13.797305-30.594025 30.594025s13.797305 30.594025 30.594025 30.594024h76.18512c7.198594 96.581136 48.190588 186.363601 117.377075 255.550088s158.968951 110.178481 255.550088 117.377075v78.784612c0 16.796719 13.797305 30.594025 30.594024 30.594025s30.594025-13.797305 30.594025-30.594025v-78.784612c96.381176-7.198594 186.363601-48.190588 255.550088-117.377075s110.178481-158.968951 117.377075-255.550088h77.384885c16.796719 0 30.594025-13.797305 30.594025-30.594024 0-16.99668-13.797305-30.594025-30.594025-30.594025zM753.1529 753.852763c-64.787346 64.787346-151.170475 100.580355-242.752588 100.580356-91.782074 0-177.965241-35.793009-242.752587-100.580356-64.787346-64.787346-100.580355-151.170475-100.580355-242.752587s35.793009-177.965241 100.580355-242.752588c64.787346-64.787346 151.170475-100.580355 242.752587-100.580355 91.782074 0 177.965241 35.793009 242.752588 100.580355 64.787346 64.787346 100.580355 151.170475 100.580355 242.752588s-35.593048 177.965241-100.580355 242.752587z" p-id="1497"></path></svg>