<?xml version="1.0" standalone="no"?><!DOCTYPE svg PUBLIC "-//W3C//DTD SVG 1.1//EN" "http://www.w3.org/Graphics/SVG/1.1/DTD/svg11.dtd"><svg t="1659751243429" class="icon" viewBox="0 0 1024 1024" version="1.1" xmlns="http://www.w3.org/2000/svg" p-id="1097" xmlns:xlink="http://www.w3.org/1999/xlink" width="200" height="200"><defs><style type="text/css">@font-face { font-family: feedback-iconfont; src: url("//at.alicdn.com/t/font_1031158_u69w8yhxdu.woff2?t=1630033759944") format("woff2"), url("//at.alicdn.com/t/font_1031158_u69w8yhxdu.woff?t=1630033759944") format("woff"), url("//at.alicdn.com/t/font_1031158_u69w8yhxdu.ttf?t=1630033759944") format("truetype"); }
</style></defs><path d="M357.856 506.24L230.72 434.4a22.4 22.4 0 0 0-29.664 6.976 19.744 19.744 0 0 0 7.392 27.936l127.136 71.872a22.4 22.4 0 0 0 29.664-6.976 19.776 19.776 0 0 0-7.392-27.968z" p-id="1098"></path><path d="M906.048 407.52c-11.968 0-21.632 9.12-21.632 20.384v251.584l-363.552 193.408V516.544c0-1.568-0.608-2.944-0.928-4.416l371.328-198.272a19.808 19.808 0 0 0-0.96-35.904L508.928 98.272a22.944 22.944 0 0 0-19.328 0L108.224 277.952a19.296 19.296 0 0 0-10.464 23.424 18.336 18.336 0 0 0-1.44 6.752v383.296c0 7.168 3.968 13.76 10.432 17.44l381.376 216.352 0.16 0.064c0.256 0.128 0.576 0.128 0.8 0.288a22.976 22.976 0 0 0 8.608 2.304c0.992 0.064 1.952-0.096 2.944-0.16a22.08 22.08 0 0 0 7.456-1.76c0.608-0.256 1.184-0.128 1.792-0.448l406.816-216.384a20.16 20.16 0 0 0 11.008-17.728v-263.488c-0.032-11.232-9.728-20.384-21.664-20.384zM477.664 871.712L139.488 679.872v-348.8l339.104 181.056c-0.352 1.472-0.928 2.848-0.928 4.416v355.168zM834.656 297.28l-335.392 179.072L163.904 297.28l335.328-158.016L834.656 297.28z" p-id="1099"></path></svg>