<svg
 xmlns="http://www.w3.org/2000/svg"
 xmlns:xlink="http://www.w3.org/1999/xlink"
 width="36px" height="31px">
<path fill-rule="evenodd"
 d="M17.337,0.072 C17.966,-0.069 18.642,-0.004 19.228,0.261 C19.810,0.520 20.299,0.972 20.591,1.526 C20.849,2.010 20.953,2.569 20.887,3.110 C20.813,3.738 20.506,4.336 20.037,4.774 C21.934,6.979 23.846,9.171 25.749,11.371 C27.256,10.939 28.764,10.514 30.269,10.076 C30.002,9.120 30.329,8.043 31.077,7.371 C31.584,6.902 32.271,6.623 32.972,6.601 C33.556,6.578 34.147,6.729 34.642,7.032 C35.177,7.357 35.598,7.856 35.814,8.430 C36.055,9.062 36.048,9.779 35.791,10.404 C35.573,10.942 35.175,11.409 34.675,11.723 C34.156,12.052 33.526,12.210 32.908,12.173 C32.154,16.252 31.400,20.332 30.646,24.412 C30.552,24.884 30.490,25.364 30.354,25.829 C30.106,26.623 29.403,27.263 28.568,27.451 C28.203,27.541 27.825,27.515 27.453,27.518 C20.953,27.518 14.452,27.519 7.952,27.518 C7.013,27.512 6.113,26.939 5.734,26.107 C5.561,25.763 5.535,25.379 5.461,25.009 C4.670,20.730 3.880,16.451 3.088,12.173 C2.191,12.231 1.277,11.860 0.695,11.195 C0.278,10.732 0.041,10.131 -0.000,9.520 L-0.000,9.377 C0.008,8.809 0.189,8.244 0.532,7.782 C0.897,7.282 1.437,6.905 2.041,6.725 C2.684,6.531 3.397,6.561 4.020,6.810 C4.666,7.066 5.211,7.554 5.519,8.162 C5.802,8.711 5.884,9.352 5.756,9.952 C7.249,10.418 8.745,10.877 10.240,11.340 C12.144,9.151 14.048,6.962 15.949,4.772 C15.451,4.294 15.134,3.640 15.096,2.959 C15.047,2.252 15.296,1.532 15.772,0.994 C16.173,0.534 16.730,0.205 17.337,0.072 M11.437,19.927 C11.277,19.961 11.128,20.036 11.005,20.141 C10.586,20.492 10.567,21.191 10.956,21.570 C11.138,21.752 11.399,21.855 11.660,21.851 C15.883,21.852 20.106,21.852 24.328,21.851 C24.759,21.861 25.168,21.558 25.270,21.153 C25.334,20.883 25.312,20.581 25.154,20.343 C24.980,20.070 24.654,19.897 24.323,19.905 C20.167,19.906 16.010,19.905 11.853,19.905 C11.715,19.907 11.574,19.897 11.437,19.927 L11.437,19.927 ZM6.803,29.058 C10.892,29.047 14.983,29.056 19.073,29.053 C22.408,29.053 25.743,29.052 29.079,29.054 C29.432,29.054 29.772,29.264 29.927,29.571 C30.031,29.766 30.045,29.995 30.016,30.210 C29.965,30.546 29.706,30.842 29.373,30.948 C29.216,31.004 29.047,31.001 28.883,31.000 C21.559,30.999 14.235,31.000 6.911,30.999 C6.637,31.001 6.365,30.887 6.183,30.689 C5.820,30.302 5.851,29.625 6.265,29.284 C6.414,29.157 6.605,29.076 6.803,29.058 L6.803,29.058 Z"/>
</svg>
